<?xml version="1.0" standalone="no"?>
<!DOCTYPE svg PUBLIC "-//W3C//DTD SVG 20010904//EN"
 "http://www.w3.org/TR/2001/REC-SVG-20010904/DTD/svg10.dtd">
<svg version="1.0" xmlns="http://www.w3.org/2000/svg"
 width="1982.000000pt" height="1020.000000pt" viewBox="0 0 1982.000000 1020.000000"
 preserveAspectRatio="xMidYMid meet">

<g transform="translate(0.000000,1020.000000) scale(0.100000,-0.100000)"
fill="#000000" stroke="none">
<path d="M4865 9380 c-855 -70 -1641 -311 -2308 -710 -108 -64 -336 -215 -338
-223 -5 -22 -73 -1200 -69 -1202 3 -1 304 -22 670 -46 l666 -43 179 91 c386
195 769 319 1139 368 152 20 440 20 593 0 575 -75 1144 -343 1586 -746 62 -58
87 -75 87 -62 1 41 108 1274 111 1277 2 2 279 -16 614 -40 336 -24 619 -43
630 -44 44 0 -251 267 -499 454 -671 505 -1413 813 -2196 912 -148 18 -697 27
-865 14z m359 -707 c4 -109 7 -233 9 -275 l2 -78 -32 0 c-31 0 -33 2 -33 36
l0 36 -25 -30 c-51 -61 -126 -77 -200 -43 -109 49 -147 193 -80 306 30 51 91
85 154 85 48 0 74 -11 114 -48 l27 -26 0 117 0 117 29 0 29 0 6 -197z m409
-19 c49 -32 76 -91 77 -163 l0 -54 -42 6 c-134 18 -259 29 -265 23 -15 -15 23
-91 56 -113 43 -29 113 -31 158 -4 27 17 33 18 43 6 31 -37 -33 -75 -125 -75
-120 0 -195 76 -195 197 1 170 158 264 293 177z m-976 -30 c139 -111 92 -329
-79 -363 -99 -20 -180 17 -222 101 -55 110 -19 223 89 282 22 12 50 16 102 13
62 -2 76 -6 110 -33z m-468 -67 c40 -14 46 -26 27 -52 -12 -17 -17 -17 -45 -5
-104 43 -215 -60 -182 -170 37 -123 163 -155 248 -63 27 30 34 33 52 23 21
-11 21 -12 4 -42 -45 -78 -175 -113 -259 -70 -106 55 -143 170 -88 280 45 90
148 132 243 99z"/>
<path d="M4985 8646 c-54 -24 -78 -60 -83 -125 -3 -41 1 -67 12 -90 38 -72
137 -94 197 -44 86 73 74 205 -23 252 -51 24 -62 25 -103 7z"/>
<path d="M5505 8632 c-50 -10 -113 -89 -89 -111 11 -10 224 -35 231 -27 3 3 2
21 -1 40 -12 64 -79 110 -141 98z"/>
<path d="M4474 8596 c-61 -28 -97 -112 -75 -179 39 -118 191 -142 258 -41 25
39 23 125 -3 161 -47 63 -119 87 -180 59z"/>
<path d="M14388 8863 c-21 -5 -22 -20 -5 -134 l13 -87 -44 24 c-195 104 -366
-160 -214 -328 81 -90 193 -92 269 -5 l32 36 3 -32 c3 -30 5 -32 37 -29 19 1
36 4 37 5 2 1 -15 124 -36 272 -22 149 -40 273 -40 278 0 7 -23 8 -52 0z m-29
-262 c79 -56 79 -192 -1 -241 -64 -39 -149 -15 -184 51 -24 47 -16 140 16 174
43 46 118 53 169 16z"/>
<path d="M15591 8548 c-30 -139 -56 -263 -59 -274 -3 -18 2 -23 28 -29 17 -4
34 -4 37 -2 6 7 123 541 119 545 -2 1 -19 5 -37 8 l-34 6 -54 -254z"/>
<path d="M14744 8731 c-49 -12 -92 -42 -122 -85 -22 -32 -27 -52 -30 -110 -3
-60 0 -78 20 -116 61 -113 218 -142 314 -57 l36 31 -23 17 c-22 17 -25 16 -53
-4 -19 -13 -50 -22 -86 -25 -49 -4 -60 -1 -87 22 -17 14 -36 39 -41 55 l-10
28 106 7 c58 3 127 6 154 6 48 0 48 0 48 34 0 125 -113 224 -226 197z m106
-88 c17 -16 34 -43 39 -60 l10 -33 -120 0 c-65 0 -119 2 -119 5 0 3 6 20 14
39 32 77 119 101 176 49z"/>
<path d="M15086 8698 c-10 -44 -56 -491 -52 -496 3 -2 19 -5 38 -5 l33 -2 10
88 10 89 29 -31 c56 -58 148 -69 221 -27 153 90 124 336 -44 387 -49 14 -112
0 -148 -34 l-23 -20 0 36 c0 36 -1 37 -35 37 -28 0 -36 -4 -39 -22z m275 -96
c70 -78 37 -215 -57 -241 -35 -10 -43 -9 -96 11 -60 22 -88 130 -53 199 39 75
152 92 206 31z"/>
<path d="M15865 8541 c-106 -49 -154 -173 -106 -276 52 -112 178 -156 287
-100 60 32 94 72 110 135 43 167 -134 314 -291 241z m166 -74 c72 -48 77 -152
9 -219 -33 -33 -44 -38 -85 -38 -85 0 -135 50 -135 135 0 53 19 95 56 124 37
29 110 28 155 -2z"/>
<path d="M16276 8397 c-3 -29 -8 -126 -11 -217 -5 -152 -7 -166 -26 -182 -28
-24 -60 -23 -93 3 -25 20 -28 20 -52 4 -25 -16 -25 -17 -7 -37 24 -27 87 -58
115 -58 13 1 37 9 54 18 29 15 384 328 384 338 0 2 -14 11 -31 20 l-31 16 -47
-44 c-25 -23 -81 -77 -125 -118 l-78 -75 6 65 c3 36 8 115 12 175 l6 110 -35
17 -36 17 -5 -52z"/>
<path d="M1873 8204 c-178 -135 -420 -375 -580 -576 -576 -722 -863 -1577
-863 -2568 0 -752 150 -1411 451 -1990 122 -233 341 -543 476 -672 l38 -37
658 -47 c361 -26 660 -44 664 -41 3 4 27 280 54 614 l47 608 -38 45 c-202 242
-372 669 -436 1092 -21 144 -30 507 -15 649 59 559 336 1120 775 1567 50 50
86 92 81 92 -100 3 -1297 90 -1305 95 -7 5 -9 40 -5 113 3 59 10 199 15 312
12 230 38 673 44 738 2 23 0 42 -4 42 -5 0 -30 -16 -57 -36z m-388 -2294 c132
-33 245 -62 252 -65 9 -3 10 -12 2 -34 -10 -27 -13 -29 -42 -20 -18 5 -32 9
-33 9 -1 0 9 -21 22 -47 13 -25 24 -59 24 -75 0 -34 -24 -95 -48 -121 -88 -98
-288 -64 -343 57 -37 81 -13 174 56 219 19 12 35 25 35 28 0 3 -45 16 -101 29
-55 13 -103 28 -106 33 -2 4 -2 19 1 33 5 18 12 24 24 20 9 -3 125 -32 257
-66z m-105 -520 c129 -16 241 -30 248 -30 7 0 12 -13 12 -30 0 -23 -4 -30 -20
-30 -11 0 -129 14 -262 30 -132 17 -247 30 -254 30 -9 0 -14 11 -14 30 0 38
-9 38 290 0z m-234 -206 c-3 -9 -6 -24 -6 -35 0 -14 -7 -19 -30 -19 -28 0 -30
3 -30 35 0 34 2 35 36 35 29 0 35 -3 30 -16z m337 -10 l137 -6 0 -30 0 -30
-167 6 c-219 9 -223 10 -223 48 l0 30 58 -6 c31 -3 119 -8 195 -12z m125 -216
c-2 -28 -8 -34 -30 -36 l-28 -3 29 -24 c39 -34 54 -76 49 -136 -10 -99 -57
-122 -275 -134 l-113 -6 0 29 c0 26 4 30 38 36 20 3 66 6 102 6 136 1 190 33
190 114 0 75 -60 121 -143 111 -18 -2 -71 -6 -119 -9 l-88 -5 0 29 c0 17 1 30
3 31 1 1 81 7 177 14 96 6 183 13 193 14 15 1 18 -5 15 -31z m-10 -449 c63
-31 97 -86 97 -158 0 -44 -6 -64 -24 -90 l-25 -34 36 6 c33 5 37 3 43 -20 3
-14 2 -29 -2 -33 -9 -9 -523 -124 -528 -119 -2 2 -6 16 -10 31 -7 26 -6 26 92
48 136 30 131 26 86 59 -68 49 -90 130 -58 208 22 52 42 72 100 99 64 30 134
31 193 3z"/>
<path d="M1445 5826 c-106 -47 -113 -190 -13 -242 47 -25 129 -24 165 2 90 66
75 187 -31 235 -48 22 -80 23 -121 5z"/>
<path d="M1475 4463 c-133 -34 -170 -171 -67 -248 38 -28 130 -28 168 1 68 50
89 129 50 188 -30 46 -98 73 -151 59z"/>
<path d="M7436 7778 c-3 -18 -24 -303 -46 -633 -22 -330 -43 -620 -46 -646
l-5 -45 651 -725 c359 -398 655 -725 659 -726 6 -1 1243 1369 1248 1384 3 7
-1058 1206 -1142 1292 -24 25 -33 26 -637 77 -337 29 -627 53 -645 54 -29 0
-33 -4 -37 -32z m679 -538 c18 -20 18 -21 -3 -43 -28 -30 -28 -35 2 -30 62 12
145 -42 172 -112 36 -96 -14 -203 -120 -257 -56 -29 -141 -22 -190 15 -47 36
-59 60 -66 127 l-5 55 -71 -67 -70 -67 -23 22 -22 22 183 177 c101 98 186 177
189 178 3 0 14 -9 24 -20z m470 -250 l21 -20 -145 -143 c-80 -78 -171 -166
-203 -196 l-56 -53 -18 27 -18 27 195 188 c107 104 196 189 198 189 3 1 14 -8
26 -19z m62 -292 c72 -49 110 -120 98 -185 -5 -28 -30 -60 -112 -145 l-106
-108 -24 22 c-21 19 -21 23 -8 38 21 23 19 30 -10 30 -41 0 -102 37 -130 77
-40 60 -32 134 19 175 26 22 97 23 135 4 28 -15 100 -88 119 -122 11 -19 11
-19 33 3 48 47 16 133 -68 184 -21 12 -39 24 -41 25 -2 1 1 12 7 23 13 24 27
20 88 -21z m258 -278 c17 -19 17 -21 2 -38 -25 -27 -21 -32 21 -32 114 0 181
-133 114 -226 -30 -41 -188 -194 -201 -194 -4 0 -16 10 -27 21 -19 21 -19 22
72 108 51 47 97 96 103 108 40 78 -39 170 -126 148 -15 -3 -63 -41 -107 -84
-117 -112 -114 -110 -137 -81 l-18 25 137 132 c75 73 140 132 143 132 3 1 14
-8 24 -19z"/>
<path d="M8045 7116 c-99 -44 -129 -173 -56 -238 60 -53 132 -49 192 11 82 81
65 193 -34 230 -37 14 -65 13 -102 -3z"/>
<path d="M8413 6548 c-43 -46 -20 -118 47 -153 43 -22 84 -19 119 11 31 26 31
26 14 55 -30 51 -87 99 -124 105 -27 5 -38 1 -56 -18z"/>
<path d="M10825 6406 c-64 -29 -115 -109 -115 -180 1 -69 68 -163 140 -193
126 -54 277 42 283 180 2 40 1 42 -28 42 -28 0 -30 -3 -35 -41 -11 -76 -62
-127 -128 -127 -21 0 -49 6 -61 13 l-23 12 24 26 c205 226 198 210 105 257
-57 28 -115 32 -162 11z m118 -67 c12 -7 24 -13 26 -15 5 -4 -142 -172 -151
-173 -14 -2 -38 58 -38 91 1 64 44 107 108 108 18 0 43 -5 55 -11z"/>
<path d="M18165 6210 c-68 -27 -115 -68 -150 -131 -56 -102 -35 -239 51 -324
113 -113 298 -106 408 16 120 133 76 347 -88 431 -59 30 -157 34 -221 8z m203
-81 c60 -29 95 -84 100 -158 15 -206 -270 -305 -379 -133 -49 77 -35 197 28
254 62 57 175 73 251 37z"/>
<path d="M10550 6097 c-118 -62 -146 -202 -50 -252 42 -21 49 -20 144 31 93
48 121 50 132 9 10 -40 -24 -83 -88 -113 -57 -27 -67 -42 -49 -71 15 -24 88 7
143 59 75 73 83 146 21 200 -45 40 -76 38 -167 -10 -84 -45 -110 -49 -126 -21
-19 37 11 82 80 116 19 10 36 19 38 20 8 7 -12 55 -23 55 -6 0 -31 -10 -55
-23z"/>
<path d="M10263 5771 c-46 -33 -76 -72 -99 -127 -15 -35 -15 -39 2 -51 29 -21
37 -16 68 42 28 54 76 95 110 95 9 0 30 -7 46 -15 l28 -15 -63 -63 c-66 -66
-93 -124 -79 -170 10 -33 64 -85 95 -92 71 -16 159 53 182 142 12 48 14 51 29
37 14 -14 17 -13 37 12 18 22 19 30 9 40 -74 69 -206 177 -225 185 -47 18 -98
11 -140 -20z m226 -137 c52 -67 -1 -184 -83 -184 -59 0 -82 50 -51 109 14 28
91 101 106 101 4 0 17 -12 28 -26z"/>
<path d="M13320 5674 c-108 -23 -222 -86 -305 -168 -123 -122 -185 -269 -185
-442 0 -111 14 -173 62 -274 52 -109 167 -228 270 -278 265 -129 585 -84 783
112 123 122 185 269 185 442 0 111 -14 173 -62 274 -52 109 -167 228 -270 278
-140 69 -322 90 -478 56z m285 -303 c66 -29 128 -93 161 -164 35 -77 39 -182
11 -265 -25 -70 -101 -152 -169 -183 -72 -31 -183 -32 -250 -2 -118 53 -192
170 -192 303 -1 98 23 165 81 230 72 80 152 113 256 105 33 -3 78 -14 102 -24z"/>
<path d="M18252 5541 l-254 -45 6 -34 c3 -19 7 -36 8 -38 2 -1 37 4 78 12 103
19 103 20 78 -23 -26 -43 -28 -115 -5 -160 32 -62 114 -113 183 -113 49 0 126
32 163 69 74 74 75 179 1 253 -40 40 -40 48 -3 48 22 0 24 3 18 33 -4 17 -10
35 -14 38 -3 3 -120 -15 -259 -40z m177 -75 c63 -33 86 -127 45 -183 -52 -71
-167 -84 -226 -26 -60 60 -43 164 33 205 41 22 109 23 148 4z"/>
<path d="M9995 5466 c-64 -29 -115 -109 -115 -180 1 -69 68 -163 140 -193 126
-54 277 42 283 180 2 40 1 42 -28 42 -28 0 -30 -3 -35 -41 -11 -76 -62 -127
-128 -127 -21 0 -49 6 -61 13 l-23 12 24 26 c205 226 198 210 105 257 -57 28
-115 32 -162 11z m118 -67 c12 -7 24 -13 26 -15 5 -4 -142 -172 -151 -173 -14
-2 -38 58 -38 91 1 64 44 107 108 108 18 0 43 -5 55 -11z"/>
<path d="M14783 5386 c-46 -15 -92 -44 -140 -90 l-33 -30 0 62 0 62 -155 0
-155 0 0 -605 0 -605 155 0 155 0 0 190 c0 105 2 190 6 190 3 0 19 -14 37 -30
120 -114 341 -119 482 -13 59 45 123 137 149 213 27 81 33 239 12 333 -30 135
-117 247 -234 303 -47 23 -73 28 -147 31 -57 2 -105 -2 -132 -11z m74 -261
c141 -42 191 -237 90 -352 -97 -110 -272 -75 -322 66 -28 82 -15 168 37 227
39 44 70 61 139 73 3 1 28 -6 56 -14z"/>
<path d="M15689 5386 c-147 -39 -228 -142 -229 -289 0 -162 63 -217 349 -309
121 -38 147 -62 112 -97 -42 -42 -197 -21 -320 44 -75 40 -65 46 -140 -73 -61
-97 -64 -88 54 -147 112 -56 217 -78 349 -73 140 6 209 30 276 97 107 108 109
298 4 390 -49 43 -91 63 -236 110 -143 47 -174 66 -164 99 16 51 136 45 270
-13 44 -19 81 -33 82 -32 8 11 104 196 104 201 0 13 -124 65 -204 86 -91 23
-234 26 -307 6z"/>
<path d="M9600 5273 c-25 -32 -47 -7 207 -233 l188 -168 23 21 c12 11 22 25
21 31 0 6 -57 61 -126 121 -69 61 -163 143 -209 183 l-82 72 -22 -27z"/>
<path d="M18356 5059 c-98 -23 -159 -100 -159 -198 0 -60 24 -121 61 -154 20
-18 21 -18 37 6 15 24 15 27 -10 63 -23 33 -26 47 -23 92 5 58 30 94 78 110
l27 10 7 -66 c3 -37 6 -106 6 -154 l0 -88 31 0 c131 0 229 116 198 233 -15 58
-50 101 -101 125 -55 26 -103 32 -152 21z m132 -88 c43 -22 62 -55 62 -107 0
-45 -56 -107 -92 -102 -22 3 -23 7 -26 116 -2 75 1 112 8 112 6 0 28 -9 48
-19z"/>
<path d="M10515 4324 c-340 -378 -618 -692 -619 -699 -1 -12 1111 -1255 1123
-1255 4 0 36 275 71 611 36 335 67 614 70 619 3 5 279 -13 630 -41 344 -27
637 -48 652 -47 23 3 -37 74 -634 743 -362 407 -663 743 -667 748 -4 4 -286
-301 -626 -679z"/>
<path d="M9565 4976 c-64 -29 -115 -109 -115 -180 1 -69 68 -163 140 -193 126
-54 277 42 283 180 2 40 1 42 -28 42 -28 0 -30 -3 -35 -41 -11 -76 -62 -127
-128 -127 -21 0 -49 6 -61 13 l-23 12 24 26 c205 226 198 210 105 257 -57 28
-115 32 -162 11z m118 -67 c12 -7 24 -13 26 -15 5 -4 -142 -172 -151 -173 -14
-2 -38 58 -38 91 1 64 44 107 108 108 18 0 43 -5 55 -11z"/>
<path d="M9319 4714 c-19 -40 -20 -52 -12 -91 l11 -44 -27 25 c-33 32 -42 32
-69 3 l-21 -22 151 -134 150 -133 26 26 26 26 -77 71 c-43 39 -84 84 -92 100
-20 38 -19 104 2 140 16 28 16 29 -7 54 -13 14 -27 25 -31 25 -4 0 -17 -21
-30 -46z"/>
<path d="M18187 4574 c-4 -21 -5 -39 -4 -40 1 -1 46 -7 100 -12 147 -16 202
-52 214 -139 5 -38 8 -41 40 -45 24 -3 37 0 40 10 10 24 -17 90 -48 122 l-31
31 43 -3 c44 -3 44 -3 47 33 l3 35 -178 18 c-98 10 -187 20 -199 23 -18 4 -22
-1 -27 -33z"/>
<path d="M18175 4307 c-51 -51 -67 -128 -40 -193 14 -35 14 -36 -6 -31 -15 4
-23 -1 -30 -21 -5 -14 -8 -30 -6 -37 6 -13 236 -68 287 -68 44 0 92 24 114 57
27 42 47 136 40 189 -5 44 -8 48 -28 43 -11 -3 -25 -6 -31 -6 -6 0 -9 -21 -7
-50 7 -96 -32 -160 -99 -160 l-37 0 24 58 c58 142 12 252 -107 252 -33 0 -47
-6 -74 -33z m125 -57 c28 -28 30 -96 3 -162 -19 -48 -52 -51 -94 -9 -24 25
-29 38 -29 79 0 89 70 142 120 92z"/>
<path d="M18054 3875 c-48 -33 -70 -126 -35 -145 29 -15 41 -12 41 10 0 50 25
75 70 71 12 -1 207 -69 217 -76 2 -1 -7 -25 -18 -55 -21 -55 -19 -63 18 -74
18 -6 23 0 39 41 9 26 20 51 24 55 3 4 29 -1 58 -12 l52 -20 11 26 c14 38 9
44 -41 63 -40 15 -45 20 -42 44 2 22 -3 29 -24 37 -30 12 -30 12 -41 -16 -8
-20 -11 -20 -123 22 -122 46 -173 53 -206 29z"/>
<path d="M17965 3622 c-83 -39 -131 -124 -123 -213 6 -59 8 -62 43 -53 25 6
27 10 21 43 -16 99 78 196 160 164 20 -8 17 -14 -47 -133 -37 -69 -68 -131
-68 -137 -1 -18 53 -43 108 -50 121 -14 228 103 202 220 -30 129 -184 212
-296 159z m213 -132 c57 -85 -12 -195 -113 -176 -19 4 -35 10 -35 13 0 17 107
202 115 200 6 -2 20 -18 33 -37z"/>
<path d="M3047 3203 c-3 -15 -27 -291 -53 -613 -26 -322 -50 -588 -53 -591 -3
-4 -294 13 -645 37 -352 24 -642 42 -645 39 -13 -14 275 -276 464 -423 136
-105 411 -287 570 -377 775 -442 1682 -666 2595 -641 258 6 372 16 590 47 496
71 958 216 1390 435 252 128 518 297 626 399 l43 40 29 610 c15 336 28 611 28
611 -1 1 -300 25 -665 53 l-663 52 -77 -45 c-342 -201 -779 -347 -1191 -398
-173 -21 -546 -16 -719 11 -537 82 -1020 301 -1481 669 -58 47 -112 91 -122
99 -14 13 -17 11 -21 -14z m1570 -1263 c15 0 14 -22 -4 -97 -4 -20 0 -23 45
-29 64 -8 76 -16 67 -43 -6 -20 -11 -22 -48 -16 -23 4 -49 9 -58 11 -19 5 -20
2 -46 -149 l-18 -109 24 -19 c13 -11 39 -19 58 -19 28 0 34 -3 29 -16 -3 -9
-6 -20 -6 -26 0 -7 -21 -9 -55 -6 -109 9 -123 50 -85 248 11 58 20 106 20 106
0 1 -11 5 -25 8 -18 5 -25 13 -25 31 0 21 5 25 29 25 31 0 34 4 46 73 5 29 10
37 21 33 9 -3 23 -6 31 -6z m1065 -102 l3 -53 63 2 63 3 -3 -28 c-3 -25 -7
-27 -58 -32 l-55 -5 1 -40 c8 -216 23 -252 100 -240 42 6 44 5 44 -19 0 -26
-2 -27 -73 -41 -35 -7 -87 15 -101 43 -10 21 -36 220 -36 282 0 9 -10 11 -30
7 -28 -6 -30 -4 -30 23 0 26 4 30 26 30 27 0 27 0 21 60 l-5 60 33 0 c34 0 34
0 37 -52z m-645 -74 c19 -9 45 -31 59 -49 29 -38 54 -149 37 -166 -7 -7 -56
-6 -157 3 l-146 14 0 -24 c0 -41 29 -83 73 -103 53 -24 71 -23 126 2 39 17 47
18 59 5 19 -19 8 -34 -42 -57 -146 -66 -307 57 -280 215 18 109 88 175 187
176 27 0 65 -7 84 -16z m433 -20 c36 -15 39 -18 28 -38 -6 -11 -12 -22 -13
-24 -1 -1 -18 5 -38 13 -52 22 -113 19 -137 -5 -41 -41 -19 -66 85 -100 83
-28 125 -64 125 -110 0 -46 -27 -90 -65 -106 -63 -26 -169 -13 -217 26 -21 17
-22 20 -7 35 14 14 19 14 60 -4 58 -27 123 -27 149 -1 44 44 20 76 -82 109
-78 26 -113 51 -122 87 -10 40 12 93 48 115 39 24 130 25 186 3z"/>
<path d="M4894 1711 c-27 -17 -72 -86 -62 -97 5 -4 179 -24 219 -24 25 0 26 2
20 33 -12 49 -29 75 -61 92 -39 20 -79 19 -116 -4z"/>
<path d="M12577 2268 c-42 -73 -157 -300 -157 -308 0 -8 59 -35 64 -29 1 2 31
56 65 120 63 118 84 139 136 139 54 0 95 -39 95 -91 0 -10 -27 -72 -60 -136
-33 -64 -60 -120 -60 -124 0 -5 13 -15 29 -24 l29 -15 61 114 c64 120 96 156
140 156 42 0 88 -34 96 -72 7 -28 -2 -50 -58 -160 l-66 -128 29 -15 c16 -8 31
-15 34 -15 9 0 134 246 141 277 21 101 -89 195 -196 166 -37 -10 -37 -9 -48
28 -21 71 -104 114 -177 91 -31 -9 -33 -9 -24 8 15 28 12 36 -15 48 -34 16
-31 18 -58 -30z"/>
<path d="M13280 1957 c-19 -6 -53 -29 -75 -52 -64 -63 -82 -153 -46 -230 50
-109 181 -156 288 -104 56 27 89 68 109 135 22 77 2 145 -60 202 -63 58 -135
75 -216 49z m148 -77 c60 -37 77 -112 42 -188 -15 -34 -29 -47 -64 -63 -65
-28 -142 -6 -171 51 -19 38 -19 113 0 151 34 65 128 89 193 49z"/>
<path d="M14167 1914 c-4 -4 -7 -22 -7 -41 0 -30 3 -33 30 -33 17 0 33 -1 37
-2 6 -3 25 64 20 69 -8 7 -74 13 -80 7z"/>
<path d="M13695 1848 c-6 -17 -84 -382 -82 -385 1 0 18 -4 37 -8 l36 -6 17 88
c41 201 55 223 137 223 52 0 85 -23 96 -67 4 -15 -5 -80 -20 -155 -15 -71 -26
-131 -24 -132 2 -2 17 -6 35 -9 37 -7 31 -20 68 152 16 71 25 139 22 158 -8
48 -41 88 -87 107 -53 21 -87 20 -134 -3 l-38 -20 5 25 c5 27 4 28 -36 38 -18
4 -29 2 -32 -6z"/>
<path d="M14356 1829 c-3 -17 -6 -42 -6 -55 0 -19 -5 -24 -24 -24 -24 0 -36
-16 -36 -51 0 -14 7 -19 28 -19 l27 0 -8 -131 c-10 -147 -3 -180 44 -204 29
-15 95 -20 123 -9 10 4 16 18 16 36 0 29 -2 30 -30 24 -17 -3 -41 -1 -55 4
-23 9 -25 14 -25 78 0 38 3 97 6 131 l7 61 57 0 c56 0 58 1 62 29 5 33 -9 41
-74 41 l-38 0 0 60 0 60 -34 0 c-30 0 -34 -4 -40 -31z"/>
<path d="M15260 1772 c-19 -9 -44 -32 -56 -49 -23 -34 -34 -28 -34 18 0 15 -7
19 -33 19 -19 0 -36 -2 -39 -5 -2 -3 6 -85 18 -182 13 -98 23 -186 24 -196 0
-15 7 -18 38 -15 30 2 37 7 35 23 -2 11 -6 65 -9 120 -6 84 -4 106 10 133 18
35 69 72 99 72 18 0 23 32 11 64 -8 20 -21 20 -64 -2z"/>
<path d="M14147 1738 c-4 -18 -16 -107 -27 -197 -22 -176 -22 -181 27 -181 12
0 24 8 27 18 9 32 49 372 44 377 -2 3 -18 8 -35 11 -28 6 -31 4 -36 -28z"/>
<path d="M14746 1736 c-99 -37 -160 -148 -135 -248 16 -71 86 -141 152 -156
123 -26 245 55 263 175 23 152 -136 282 -280 229z m133 -74 c86 -46 95 -194
16 -246 -88 -58 -200 -1 -212 106 -13 117 95 194 196 140z"/>
</g>
</svg>
