<?xml version="1.0" standalone="no"?>
<!DOCTYPE svg PUBLIC "-//W3C//DTD SVG 20010904//EN"
 "http://www.w3.org/TR/2001/REC-SVG-20010904/DTD/svg10.dtd">
<svg version="1.0" xmlns="http://www.w3.org/2000/svg"
 width="1657.000000pt" height="530.000000pt" viewBox="0 0 1657.000000 530.000000"
 preserveAspectRatio="xMidYMid meet">

<g transform="translate(0.000000,530.000000) scale(0.100000,-0.100000)"
fill="#000000" stroke="none">
<path d="M0 2650 l0 -2650 8285 0 8285 0 0 2650 0 2650 -8285 0 -8285 0 0
-2650z m5437 1450 c3 -11 14 -20 24 -20 11 0 19 -4 19 -10 0 -5 38 -28 85 -50
85 -40 113 -68 55 -55 l-30 7 0 -61 c0 -73 16 -154 41 -202 30 -60 122 -136
186 -155 34 -10 58 -12 62 -7 3 6 16 16 29 22 22 12 23 11 20 -11 -3 -22 0
-23 59 -23 115 0 96 -29 -33 -51 -157 -26 -294 -12 -390 39 -93 51 -182 187
-224 341 l-20 75 21 41 c12 22 25 40 29 40 16 0 41 62 30 75 -11 14 -3 25 18
25 7 0 16 -9 19 -20z m2571 -67 c3 -30 1 -33 -25 -34 l-28 -2 28 -4 c27 -4 27
-5 25 -75 -1 -44 2 -73 9 -75 6 -2 10 11 9 34 -1 36 1 38 32 41 30 3 32 2 32
-31 0 -40 5 -46 31 -40 16 4 19 13 18 42 -5 82 27 106 62 46 17 -28 27 -35 52
-35 18 0 39 -5 47 -10 24 -15 -19 -64 -59 -68 -26 -3 -35 -11 -56 -51 -35 -70
-69 -106 -133 -143 -50 -28 -68 -33 -147 -36 -51 -2 -109 1 -134 8 -75 20
-136 112 -129 195 2 32 7 40 27 45 20 5 25 12 25 40 1 35 1 35 44 33 l42 -2 0
40 0 39 84 0 84 0 -5 41 -6 40 34 -3 c30 -3 34 -7 37 -35z m-445 -199 c38 -19
67 -44 67 -56 0 -10 -53 -34 -96 -42 -23 -5 -20 -2 16 16 l45 23 -885 5 -885
5 540 9 c297 5 694 6 883 3 188 -3 340 -2 338 2 -3 5 -19 14 -36 21 -16 7 -30
16 -30 21 0 12 6 11 43 -7z m1702 -8 c407 0 826 1 932 4 215 5 215 5 254 -72
17 -34 19 -63 20 -300 1 -247 2 -260 16 -220 8 23 19 42 24 42 5 0 9 -2 9 -5
0 -14 -50 -115 -57 -115 -5 0 -21 25 -36 55 -27 55 -23 80 4 28 12 -25 14 0
17 226 2 231 1 257 -16 290 -32 61 -28 61 -437 50 -553 -15 -1675 0 -1675 23
0 5 44 6 103 2 56 -4 435 -7 842 -8z m-3998 -81 c23 -14 43 -28 43 -31 0 -6
-92 -64 -102 -64 -19 0 -6 19 22 30 17 7 30 16 30 21 0 5 -422 9 -976 9 l-976
0 -34 -34 -34 -34 0 -245 c0 -153 -4 -248 -10 -252 -7 -4 -10 79 -10 241 0
228 2 249 20 278 39 65 -22 61 1047 61 654 0 969 3 958 10 -9 6 -24 15 -33 22
-32 24 9 14 55 -12z m2037 -235 c5 -6 5 -15 -2 -23 -8 -10 -9 -16 0 -25 20
-20 1 -42 -37 -42 l-35 0 0 48 c0 27 3 52 7 56 9 8 54 -1 67 -14z m1322 -7
c-2 -16 -5 -41 -6 -58 -2 -28 -3 -27 -10 9 -8 41 -3 76 11 76 4 0 6 -12 5 -27z
m86 9 c-10 -3 -10 -7 -1 -18 8 -10 8 -14 0 -14 -6 0 -12 -15 -12 -32 -1 -32
-2 -32 -9 7 -8 43 4 80 23 68 8 -5 8 -8 -1 -11z m25 -64 c-2 -18 -4 -6 -4 27
0 33 2 48 4 33 2 -15 2 -42 0 -60z m-1290 -5 c-2 -16 -4 -3 -4 27 0 30 2 43 4
28 2 -16 2 -40 0 -55z m93 22 c0 -51 -2 -55 -23 -55 -29 0 -47 18 -47 47 0 22
31 48 44 36 3 -3 6 1 6 10 0 10 5 17 10 17 6 0 10 -25 10 -55z m120 2 c0 -47
-2 -53 -22 -54 -29 -3 -48 14 -48 43 0 23 31 49 44 37 3 -3 6 1 6 10 0 10 5
17 10 17 6 0 10 -24 10 -53z m190 26 c0 -25 0 -26 20 -8 11 10 20 13 20 7 0
-6 -5 -14 -10 -17 -7 -4 -7 -12 0 -25 16 -29 12 -35 -10 -15 -18 16 -20 16
-20 2 0 -10 -4 -17 -10 -17 -5 0 -10 23 -10 50 0 28 5 50 10 50 6 0 10 -12 10
-27z m1101 -7 c10 9 19 12 19 6 0 -6 -5 -14 -11 -17 -7 -5 -5 -15 6 -31 18
-28 10 -31 -17 -7 -17 15 -18 15 -18 0 0 -10 -4 -17 -10 -17 -12 0 -13 25 -3
71 l8 34 3 -28 c3 -28 4 -28 23 -11z m-1227 8 c23 -9 21 -61 -3 -74 -15 -7
-23 -6 -35 6 -20 19 -20 24 0 52 17 25 16 24 38 16z m93 -11 c3 -7 -3 -9 -16
-6 -24 6 -40 -22 -23 -39 8 -8 15 -8 27 2 8 7 15 8 15 2 0 -5 -7 -15 -15 -22
-12 -10 -18 -10 -30 0 -15 13 -21 61 -8 74 11 10 46 3 50 -11z m151 -11 c3
-18 -1 -22 -23 -22 -16 0 -24 -4 -20 -10 4 -6 15 -8 26 -5 23 8 26 -10 3 -19
-21 -8 -20 -8 -39 10 -16 17 -12 53 9 66 19 13 41 4 44 -20z m62 17 c0 -5 -4
-9 -10 -9 -5 0 -14 -15 -19 -32 l-9 -33 -1 40 c-1 34 2 41 19 42 11 1 20 -2
20 -8z m57 -51 c-2 -13 -4 -3 -4 22 0 25 2 35 4 23 2 -13 2 -33 0 -45z m121
49 c14 -10 16 -67 2 -67 -5 0 -10 14 -10 30 0 17 -4 30 -10 30 -5 0 -10 -13
-10 -30 0 -16 -4 -30 -10 -30 -5 0 -10 14 -10 31 0 38 -24 35 -28 -4 -5 -39
-22 -33 -22 7 0 25 5 36 18 38 26 6 66 4 80 -5z m80 -25 c4 -39 19 -42 24 -5
2 22 10 29 36 34 l33 7 -3 -57 c-3 -48 -6 -56 -24 -59 -11 -2 -27 4 -34 13 -8
9 -8 15 -2 15 6 0 14 -5 17 -10 8 -12 25 -4 25 12 0 6 -3 8 -6 5 -4 -3 -14 -2
-24 3 -10 5 -20 6 -24 3 -12 -13 -55 -11 -66 2 -13 16 -5 35 15 35 8 0 17 5
21 12 5 8 0 9 -14 6 -22 -6 -29 2 -15 16 16 16 38 -1 41 -32z m170 10 c3 -18
-1 -22 -23 -22 -16 0 -24 -4 -19 -11 3 -6 15 -9 25 -6 23 6 25 -8 3 -17 -34
-13 -60 30 -38 63 19 27 48 24 52 -7z m120 16 c30 -30 -3 -87 -39 -68 -21 12
-24 32 -9 61 12 22 30 25 48 7z m243 -30 c5 -31 3 -37 -16 -40 -48 -10 -64 25
-20 42 14 5 25 12 25 16 0 3 -11 4 -25 2 -26 -5 -35 6 -12 15 27 12 42 1 48
-35z m77 24 c3 -9 -4 -11 -25 -7 l-28 6 28 -16 c15 -9 27 -22 27 -29 0 -17
-25 -27 -45 -20 -25 10 -17 25 10 18 14 -3 25 -3 25 0 0 4 -11 11 -25 16 -24
9 -32 29 -18 44 11 11 46 3 51 -12z m-1542 -52 c9 0 14 11 14 30 0 17 5 30 10
30 6 0 10 -17 10 -37 0 -34 -3 -38 -26 -39 -19 -2 -28 5 -35 24 -5 14 -6 33
-2 41 5 11 8 7 11 -16 2 -20 9 -33 18 -33z m61 8 c-2 -13 -4 -5 -4 17 -1 22 1
32 4 23 2 -10 2 -28 0 -40z m6653 -272 c5 -14 8 -37 7 -52 -1 -21 3 -29 18
-32 11 -2 35 -11 54 -20 31 -14 34 -14 43 2 17 30 47 56 64 56 22 0 11 -46
-18 -77 -20 -21 -20 -24 -5 -41 10 -10 17 -22 17 -25 0 -16 -49 -5 -80 18 -75
55 -172 57 -243 5 -23 -16 -51 -30 -64 -30 -27 0 -29 7 -6 32 15 17 15 21 -6
58 -21 38 -21 60 -1 60 5 0 22 -14 39 -32 29 -31 30 -32 73 -19 24 7 49 15 56
17 7 2 12 21 12 47 0 61 22 79 40 33z m-3560 -66 l0 -40 -45 0 -45 0 0 40 0
40 45 0 45 0 0 -40z m-7185 6 c221 -59 349 -293 275 -502 -39 -112 -163 -234
-242 -237 l-33 -2 -6 75 c-3 41 -9 84 -13 95 -6 18 -1 22 36 32 55 15 91 43
112 87 20 42 20 132 1 166 -8 14 -14 42 -15 62 0 20 -3 43 -6 52 -8 21 -43 20
-77 -2 -23 -16 -37 -17 -81 -10 -30 4 -74 4 -101 -1 -40 -7 -53 -6 -79 10 -49
30 -74 25 -82 -15 -3 -19 -3 -39 0 -45 4 -5 -3 -27 -14 -48 -56 -105 3 -236
117 -258 29 -5 33 -9 27 -28 -17 -58 -69 -61 -128 -7 -61 56 -90 54 -42 -2 73
-88 73 -88 116 -88 40 0 40 0 40 -39 0 -22 -4 -42 -10 -46 -18 -11 -126 54
-176 107 -64 67 -82 101 -100 190 -15 70 -13 103 8 188 50 195 272 320 473
266z m6973 -98 c-3 -43 -3 -43 -43 -43 -36 0 -40 2 -43 28 -6 46 4 57 48 57
l41 0 -3 -42z m107 -3 c0 -40 0 -40 -42 -43 l-43 -3 0 46 0 46 43 -3 c42 -3
42 -3 42 -43z m100 0 l0 -40 -40 0 c-40 0 -40 0 -43 43 l-3 43 43 -3 43 -3 0
-40z m5290 25 c12 -13 20 -45 25 -97 5 -43 6 -80 3 -83 -3 -3 -19 -6 -36 -7
-18 -1 -47 -5 -65 -9 -43 -8 -72 16 -72 62 0 41 30 64 83 64 34 0 38 3 35 23
-3 19 -9 22 -51 23 -56 1 -69 10 -43 30 30 21 99 18 121 -6z m83 3 c5 -10 15
-42 22 -70 6 -29 15 -53 20 -53 4 0 13 27 20 60 22 104 58 104 80 0 14 -65 24
-75 34 -32 23 93 27 102 46 102 11 0 20 -3 20 -7 0 -21 -54 -180 -66 -192 -20
-22 -41 2 -55 65 -7 30 -16 57 -19 59 -4 3 -13 -22 -20 -55 -23 -110 -57 -100
-95 30 -14 46 -23 90 -20 97 6 18 23 16 33 -4z m380 11 c12 -4 22 -13 22 -21
0 -12 -8 -14 -34 -10 -37 6 -74 -12 -62 -31 3 -6 23 -16 44 -22 20 -7 43 -19
50 -28 20 -25 15 -69 -10 -86 -38 -27 -128 -17 -128 13 0 13 10 16 52 16 68 0
72 18 10 49 -27 14 -52 32 -56 41 -23 62 31 100 112 79z m-5529 -45 c12 -11
26 -32 31 -45 8 -20 17 -24 48 -24 21 0 46 -6 56 -13 18 -13 18 -15 1 -40 -10
-15 -38 -34 -67 -45 -45 -17 -55 -26 -81 -75 -39 -76 -130 -159 -204 -187 -72
-28 -206 -37 -286 -20 -73 15 -125 59 -157 131 -29 68 -38 150 -18 167 11 8
99 12 314 14 l299 3 -3 47 c-3 44 18 108 36 108 5 0 18 -9 31 -21z m-10241 -5
c16 -5 22 -14 22 -34 0 -23 -5 -30 -30 -35 -21 -5 -30 -13 -31 -28 -1 -12 -5
3 -9 33 -11 72 -6 78 48 64z m223 -28 c19 11 39 -18 38 -55 l-2 -36 -6 34 c-8
43 -28 51 -37 14 -11 -50 -12 -49 -12 12 0 33 2 52 5 42 2 -9 9 -15 14 -11z
m329 -31 c0 -55 0 -55 -30 -55 -23 0 -33 6 -42 26 -11 23 -10 29 11 45 13 10
27 16 32 13 5 -3 9 2 9 10 0 9 5 16 10 16 6 0 10 -25 10 -55z m430 40 c15 -18
7 -19 -19 -3 -26 16 -51 -5 -51 -44 0 -26 3 -29 27 -26 31 4 42 24 16 31 -12
3 -8 5 10 6 23 1 27 -3 27 -26 0 -25 -4 -28 -36 -31 -44 -3 -64 12 -64 46 0
51 61 82 90 47z m128 -11 c6 -1 17 -2 22 -2 6 -1 9 -21 8 -44 l-1 -43 -4 38
c-5 46 -33 53 -33 7 0 -16 -4 -30 -10 -30 -5 0 -10 24 -9 53 0 28 3 45 7 37 4
-8 13 -15 20 -16z m152 11 c0 -8 9 -15 20 -15 23 0 39 -26 32 -52 -5 -19 -44
-34 -61 -23 -14 8 -14 105 -1 105 6 0 10 -7 10 -15z m-199 -2 c5 -69 4 -92 -3
-85 -12 12 -26 65 -21 80 5 13 23 17 24 5z m-887 -18 c4 -12 0 -14 -22 -10
l-27 6 28 -16 c34 -20 33 -50 -2 -50 -14 0 -26 6 -29 13 -3 9 3 11 22 6 33 -8
34 3 1 16 -38 14 -31 46 11 49 7 1 14 -6 18 -14z m204 -10 c2 -15 1 -17 -6 -6
-12 17 -42 7 -42 -14 0 -21 30 -31 41 -14 7 11 9 10 9 -4 0 -23 -26 -33 -45
-17 -30 25 -11 84 25 78 8 -2 16 -12 18 -23z m70 13 c20 -20 15 -66 -8 -73
-42 -13 -65 32 -33 67 19 21 25 22 41 6z m170 0 c20 -20 14 -38 -13 -38 -14 0
-25 -5 -25 -11 0 -7 10 -9 28 -4 26 6 26 6 9 -12 -21 -22 -50 -8 -55 26 -6 40
30 65 56 39z m120 0 c25 -25 8 -78 -25 -78 -7 0 -19 11 -25 25 -9 21 -8 28 7
45 21 23 27 24 43 8z m-678 -28 c0 -20 5 -30 15 -30 10 0 15 10 15 30 0 17 5
30 10 30 6 0 10 -17 10 -39 0 -35 -2 -39 -27 -39 -16 0 -31 5 -35 12 -11 17
-10 66 2 66 6 0 10 -13 10 -30z m767 -15 c1 -38 1 -38 -5 -7 -8 40 -26 47 -30
12 -6 -44 -22 -47 -22 -3 0 37 2 40 28 39 24 -1 27 -5 29 -41z m190 -17 c-2
-13 -4 -3 -4 22 0 25 2 35 4 23 2 -13 2 -33 0 -45z m163 32 c0 -20 5 -30 15
-30 10 0 15 10 15 30 0 17 5 30 10 30 6 0 10 -17 10 -38 0 -33 -3 -38 -25 -40
-15 -1 -28 5 -35 17 -13 25 -13 61 0 61 6 0 10 -13 10 -30z m8530 -20 l0 -40
-45 0 -45 0 0 40 0 40 45 0 45 0 0 -40z m100 0 l0 -40 -45 0 -45 0 0 40 0 40
45 0 45 0 0 -40z m108 3 c-3 -37 -4 -38 -45 -41 l-43 -3 0 40 0 41 46 0 45 0
-3 -37z m102 -3 l0 -40 -45 0 -45 0 0 40 0 40 45 0 45 0 0 -40z m100 0 l0 -40
-45 0 -45 0 0 40 0 40 45 0 45 0 0 -40z m3168 -23 c5 -38 39 -38 44 1 2 19 9
27 23 27 18 0 20 -7 20 -75 0 -68 -2 -75 -20 -75 -14 0 -21 8 -23 28 -2 19 -9
27 -23 27 -14 0 -19 -7 -19 -30 0 -23 -5 -30 -19 -30 -27 0 -34 30 -26 101 6
48 10 59 24 57 9 -2 17 -15 19 -31z m227 13 c0 -8 -10 -16 -22 -18 -28 -4 -30
-22 -3 -22 13 0 20 -7 20 -20 0 -15 -7 -20 -25 -20 -34 0 -32 -18 3 -22 16 -2
27 -9 27 -18 0 -11 -13 -16 -47 -18 l-48 -3 0 81 0 81 48 -3 c34 -2 47 -7 47
-18z m83 -37 c3 -45 6 -52 25 -55 14 -2 23 -11 25 -25 3 -21 -1 -23 -42 -23
l-46 0 0 81 c0 71 2 80 18 77 13 -2 18 -15 20 -55z m152 23 c17 -22 27 -20 62
10 19 15 35 21 40 16 5 -5 8 -40 6 -78 -3 -61 -5 -69 -23 -69 -15 0 -21 8 -23
33 -3 28 -6 31 -18 21 -12 -10 -20 -10 -34 -1 -17 10 -19 8 -22 -21 -2 -24 -8
-32 -23 -32 -18 0 -20 8 -23 64 -4 80 1 95 26 82 10 -5 24 -17 32 -25z m-607
-6 c26 -17 45 -35 42 -40 -6 -10 -98 -60 -110 -60 -3 0 -5 4 -5 9 0 4 17 15
38 23 37 15 36 15 -82 23 -65 4 -313 6 -552 3 -239 -2 -434 0 -434 4 0 4 253
8 563 8 l562 1 -47 25 c-27 13 -48 27 -48 29 0 12 29 2 73 -25z m1938 -11 c16
-11 29 -26 29 -32 0 -13 -54 -53 -85 -62 l-20 -6 20 15 c11 8 29 22 40 30 18
14 -41 15 -562 16 -379 0 -583 3 -583 10 0 6 204 11 578 12 l577 3 -37 19
c-21 11 -38 23 -38 28 0 10 46 -8 81 -33z m-12802 3 c30 -15 55 -31 55 -37 1
-13 -83 -55 -109 -54 -20 0 -20 0 0 9 11 5 36 16 55 24 31 13 -37 14 -613 15
l-649 1 -29 -31 -29 -31 0 -206 c0 -113 -2 -203 -5 -200 -3 2 -6 94 -7 204 -2
205 1 222 41 258 19 17 53 18 651 20 346 2 633 5 636 9 3 3 -11 11 -30 18 -20
7 -36 17 -36 21 0 13 11 9 69 -20z m8981 8 c21 -11 42 -25 46 -31 9 -15 -16
-38 -65 -60 -54 -24 -53 -9 2 18 l42 22 -437 0 c-285 1 -438 4 -438 11 0 7
153 10 438 10 l437 1 -45 24 c-54 29 -36 34 20 5z m4554 -96 c22 -9 20 -50 -5
-90 -11 -19 -23 -34 -25 -34 -3 0 -2 23 2 50 l7 50 -44 0 c-41 1 -43 2 -25 15
20 15 63 20 90 9z m-597 -43 c97 -40 157 -51 277 -51 79 0 123 6 185 24 87 25
113 19 59 -14 -97 -60 -259 -86 -369 -60 -62 14 -198 82 -225 111 -23 26 -9
24 73 -10z m-1772 -67 c61 -45 165 -40 235 11 19 14 42 25 52 25 20 0 24 -20
7 -37 -7 -7 -3 -21 15 -48 48 -70 21 -92 -34 -29 l-31 36 -37 -15 c-20 -8 -45
-18 -55 -21 -13 -4 -16 -12 -12 -29 8 -29 -11 -80 -28 -75 -6 3 -14 27 -17 53
-5 45 -8 50 -35 55 -16 4 -39 12 -51 18 -18 10 -25 7 -52 -23 -50 -57 -77 -40
-41 25 19 33 20 42 9 55 -12 14 -12 18 0 25 16 10 36 3 75 -26z m-3806 -198
c20 -24 9 -69 -20 -85 -42 -23 -59 -9 -59 49 l0 50 34 0 c18 0 39 -6 45 -14z
m201 -13 c0 -21 3 -24 12 -15 19 19 30 14 18 -7 -7 -13 -7 -22 0 -26 5 -3 10
-13 10 -22 0 -11 -5 -9 -20 8 -16 20 -19 21 -20 7 0 -10 -4 -18 -10 -18 -5 0
-10 23 -10 50 0 28 5 50 10 50 6 0 10 -12 10 -27z m250 7 c0 -15 7 -20 25 -20
18 0 25 5 25 20 0 11 5 20 10 20 12 0 12 -67 0 -95 -8 -18 -9 -17 -9 8 -1 22
-6 27 -26 27 -18 0 -25 -5 -25 -20 0 -11 -4 -20 -10 -20 -5 0 -10 23 -10 50 0
28 5 50 10 50 6 0 10 -9 10 -20z m200 -10 c9 0 23 -7 30 -15 19 -23 -3 -65
-33 -65 -21 0 -25 6 -31 46 -6 44 4 89 12 52 2 -10 12 -18 22 -18z m-566 -11
c18 -26 3 -69 -25 -69 -30 0 -43 37 -24 66 19 30 30 30 49 3z m70 15 c9 -3 16
-13 16 -21 0 -12 -3 -13 -15 -3 -16 13 -35 6 -35 -15 0 -21 19 -28 35 -15 12
10 15 9 15 -4 0 -22 -27 -31 -45 -16 -18 15 -20 66 -2 73 6 3 13 6 14 6 1 1 8
-2 17 -5z m154 -6 c20 -20 14 -38 -13 -38 -14 0 -25 -5 -25 -11 0 -7 10 -9 25
-6 16 3 24 0 22 -7 -6 -19 -40 -19 -54 0 -17 23 -16 39 3 58 19 19 26 20 42 4z
m58 -12 c-8 -6 -17 -24 -19 -41 -3 -21 -4 -16 -6 17 -1 42 1 46 19 41 17 -5
18 -7 6 -17z m200 -46 c9 0 14 11 14 30 0 17 5 30 10 30 6 0 10 -17 10 -39 0
-35 -2 -38 -27 -37 -26 1 -28 5 -29 41 -1 32 -1 34 3 8 3 -20 10 -33 19 -33z
m-9289 -96 c97 -77 109 -207 26 -290 -19 -19 -33 -36 -32 -37 2 -1 25 -13 52
-26 26 -13 63 -41 82 -62 81 -90 130 -252 91 -305 -14 -18 -31 -19 -325 -22
-215 -2 -311 0 -311 7 0 6 -7 11 -15 11 -25 0 -34 40 -23 105 19 124 95 234
189 274 l50 22 -27 21 c-14 12 -35 40 -45 62 -33 73 -23 146 29 207 47 55 83
70 159 66 52 -2 69 -8 100 -33z m1828 -284 l0 -310 28 -27 27 -28 233 5 c321
7 1641 5 1700 -3 57 -7 60 3 10 28 -21 10 -33 20 -26 22 15 5 63 -19 85 -44
16 -17 15 -19 -15 -40 -18 -11 -43 -24 -57 -27 -23 -6 -23 -5 -7 6 10 7 26 18
34 24 12 8 -34 13 -183 18 -257 9 -1097 9 -1470 0 -290 -7 -292 -7 -328 15
-20 13 -38 32 -40 44 -18 86 -15 627 3 627 3 0 6 -139 6 -310z m7182 250 c24
-49 27 -60 16 -60 -5 0 -17 19 -28 43 l-20 42 -5 -195 c-5 -208 -9 -226 -57
-258 -25 -16 -86 -17 -857 -20 -456 -1 -833 1 -838 6 -5 5 364 9 819 10 583 1
836 5 855 13 56 23 62 47 66 247 3 107 0 182 -5 182 -5 0 -17 -16 -27 -36 -9
-20 -19 -34 -22 -31 -3 3 7 29 22 57 33 62 51 62 81 0z m-4359 -122 c82 -29
154 -96 196 -186 16 -34 35 -62 41 -62 17 0 86 -61 80 -71 -4 -5 -15 -9 -26
-9 -27 0 -24 -13 12 -39 44 -32 29 -37 -20 -7 -48 31 -52 51 -13 64 l27 9 -46
23 c-40 19 -51 33 -83 94 -47 93 -85 129 -171 160 -38 14 -71 23 -73 21 -2 -2
3 -16 11 -32 42 -75 52 -109 49 -164 -2 -34 1 -60 7 -63 7 -4 11 1 11 12 0 11
6 24 13 30 9 8 19 -2 39 -40 l28 -51 -29 27 c-23 23 -29 25 -34 12 -4 -9 -13
-16 -20 -16 -23 0 -40 55 -33 101 5 28 2 46 -9 62 -8 12 -15 28 -15 37 0 8 -9
26 -20 40 -24 31 -26 70 -4 70 8 0 45 -10 82 -22z m12 -69 c0 -6 -4 -7 -10 -4
-5 3 -10 11 -10 16 0 6 5 7 10 4 6 -3 10 -11 10 -16z m2227 -66 l3 -73 -45 0
c-25 0 -45 -3 -45 -8 0 -4 20 -6 45 -4 33 3 45 0 45 -9 0 -12 2 -12 9 -1 5 8
22 12 42 10 30 -3 34 -7 37 -35 l3 -32 -213 2 -213 2 0 30 c0 27 3 30 38 33
23 2 37 -1 37 -9 0 -9 3 -9 15 1 8 6 29 11 47 9 51 -3 102 0 95 7 -3 3 -38 6
-77 5 l-71 -1 3 33 3 32 85 1 85 1 -3 31 c-5 43 4 54 41 50 l32 -3 2 -72z
m203 -70 c12 -26 21 -33 46 -33 16 0 39 -6 49 -14 18 -13 18 -15 -12 -45 -17
-17 -42 -31 -55 -31 -18 0 -30 -13 -53 -56 -56 -104 -152 -167 -275 -179 -79
-8 -171 7 -210 35 -42 30 -74 104 -75 170 l0 55 260 6 c143 3 260 6 260 7 0 1
-1 20 -3 41 -8 78 39 107 68 44z m-3083 -258 c13 -38 26 -77 29 -85 4 -9 17
16 33 64 29 86 51 111 75 86 9 -10 16 -52 21 -127 6 -100 5 -114 -9 -119 -9
-4 -19 -4 -22 -1 -3 3 -9 45 -13 94 l-6 88 -31 -90 c-41 -123 -54 -123 -92 -4
l-29 92 -7 -84 c-7 -86 -15 -107 -36 -94 -11 7 -8 118 6 218 5 34 9 38 32 35
22 -3 29 -13 49 -73z m487 65 c38 -14 31 -30 -13 -30 -47 0 -69 -20 -47 -43 9
-8 32 -25 52 -37 42 -26 55 -55 42 -91 -15 -45 -93 -65 -134 -35 -26 19 -11
31 35 27 51 -3 76 23 44 48 -11 9 -37 29 -57 44 -45 35 -49 75 -10 106 30 23
50 26 88 11z m186 4 c43 -9 70 -54 70 -119 0 -27 -7 -63 -16 -80 -14 -27 -14
-31 0 -41 17 -12 21 -40 7 -48 -4 -3 -19 3 -31 14 -14 12 -38 20 -61 20 -25 0
-47 8 -64 23 -23 19 -28 33 -32 87 -3 54 -1 71 16 98 12 18 31 37 44 42 28 11
28 11 67 4z m148 -106 l3 -107 37 -3 c25 -2 37 -8 37 -18 0 -12 -13 -15 -60
-15 l-60 0 -2 105 c-3 127 2 152 25 148 15 -3 17 -18 20 -110z m-578 -20 c23
-88 27 -86 54 35 4 18 13 27 26 27 24 0 25 -11 5 -78 -22 -73 -60 -151 -81
-167 -25 -19 -64 -19 -64 -1 0 8 10 16 23 18 15 2 23 11 25 30 3 23 -4 53 -44
181 -5 15 -1 18 18 15 19 -2 26 -13 38 -60z m2200 3 c77 -39 55 -41 -410 -42
-881 0 -1040 1 -1040 9 0 4 280 6 622 4 343 -2 670 0 728 4 l105 7 -42 18
c-24 10 -43 21 -43 24 0 8 37 -3 80 -24z m10 -56 c0 -5 -76 -45 -87 -45 -12 0
10 18 42 34 31 16 45 20 45 11z m-6827 -142 c12 -7 8 -68 -5 -81 -7 -7 -25
-12 -40 -12 -27 0 -28 1 -28 56 l0 56 33 -7 c17 -4 35 -9 40 -12z m6454 11
c19 -5 22 -12 20 -53 -2 -46 -2 -46 -39 -49 l-38 -3 0 49 c0 63 6 69 57 56z
m138 -4 c3 -5 1 -10 -4 -10 -6 0 -11 5 -11 10 0 6 2 10 4 10 3 0 8 -4 11 -10z
m115 -49 c0 -58 -1 -59 -26 -56 -26 2 -44 19 -44 42 0 18 31 45 46 39 9 -3 14
2 14 14 0 11 2 20 5 20 3 0 5 -27 5 -59z m560 49 c0 -5 -5 -10 -11 -10 -5 0
-7 5 -4 10 3 6 8 10 11 10 2 0 4 -4 4 -10z m540 0 c0 -5 -6 -10 -12 -10 -9 0
-8 -4 2 -10 11 -7 12 -12 3 -18 -6 -4 -13 -21 -16 -37 -3 -20 -4 -13 -6 21 0
28 2 54 6 57 10 10 23 8 23 -3z m-7530 -50 c0 -27 -4 -50 -10 -50 -5 0 -10 23
-10 50 0 28 5 50 10 50 6 0 10 -22 10 -50z m6350 0 c0 -27 -4 -50 -10 -50 -5
0 -10 23 -10 50 0 28 5 50 10 50 6 0 10 -22 10 -50z m210 -4 c0 -53 -1 -55
-26 -53 -15 1 -33 11 -40 23 -12 17 -11 23 2 43 9 12 22 20 30 17 8 -3 14 1
14 9 0 8 5 15 10 15 6 0 10 -24 10 -54z m190 28 c0 -24 2 -25 17 -13 15 12 16
12 10 -4 -4 -10 -2 -27 3 -38 13 -24 2 -25 -16 -1 -13 16 -13 16 -14 0 0 -10
-4 -18 -10 -18 -5 0 -10 23 -10 50 0 28 5 50 10 50 6 0 10 -12 10 -26z m1200
-24 c0 -27 -4 -50 -10 -50 -5 0 -10 23 -10 50 0 28 5 50 10 50 6 0 10 -22 10
-50z m-8142 18 c22 -22 13 -38 -19 -38 -19 0 -28 -4 -23 -11 3 -6 18 -8 33 -5
24 6 25 5 7 -8 -14 -11 -24 -12 -37 -5 -32 16 -19 79 16 79 6 0 16 -5 23 -12z
m53 -38 c4 0 10 12 15 28 5 17 9 21 11 11 5 -19 -13 -69 -25 -69 -11 0 -32 46
-31 68 1 11 5 7 12 -10 6 -16 14 -28 18 -28z m97 38 c20 -20 14 -38 -13 -38
-14 0 -25 -5 -25 -11 0 -7 10 -9 28 -5 25 6 26 5 8 -8 -14 -11 -24 -12 -37 -5
-32 16 -19 79 16 79 6 0 16 -5 23 -12z m120 -25 c4 -40 -27 -62 -52 -37 -20
20 -20 33 1 56 24 27 47 19 51 -19z m80 24 c28 -18 -1 -83 -32 -71 -8 3 -16
-2 -19 -13 -3 -10 -5 7 -6 37 -1 52 1 56 22 55 12 0 28 -4 35 -8z m80 1 c20
-20 14 -38 -13 -38 -14 0 -25 -5 -25 -11 0 -7 10 -9 28 -5 25 6 26 5 8 -8 -14
-11 -24 -12 -37 -5 -32 16 -19 79 16 79 6 0 16 -5 23 -12z m62 0 c0 -4 -4 -8
-10 -8 -5 0 -10 -13 -10 -30 0 -16 -4 -30 -10 -30 -5 0 -10 18 -10 39 0 34 3
40 20 38 11 -1 20 -5 20 -9z m6328 0 c30 -30 -3 -87 -39 -68 -21 12 -24 32 -9
61 12 22 30 25 48 7z m82 -3 c8 -9 9 -15 2 -15 -6 0 -14 5 -17 10 -9 15 -25 2
-25 -20 0 -24 20 -37 31 -19 4 7 11 11 14 7 3 -3 -2 -13 -11 -22 -15 -16 -18
-16 -35 0 -22 20 -24 45 -7 62 16 16 33 15 48 -3z m148 3 c20 -20 14 -38 -13
-38 -14 0 -25 -5 -25 -11 0 -7 10 -9 28 -5 25 6 26 5 8 -8 -14 -11 -24 -12
-37 -5 -32 16 -19 79 16 79 6 0 16 -5 23 -12z m62 2 c0 -5 -4 -10 -10 -10 -5
0 -10 -13 -10 -30 0 -16 -4 -30 -10 -30 -5 0 -10 18 -10 40 0 33 3 40 20 40
11 0 20 -4 20 -10z m186 -35 c1 -33 1 -34 -3 -7 -6 42 -33 44 -33 1 0 -17 -4
-28 -10 -24 -5 3 -10 17 -10 31 0 13 -4 24 -10 24 -5 0 -10 -13 -10 -30 0 -16
-4 -30 -10 -30 -15 0 -12 68 2 72 7 3 29 4 48 3 34 -1 35 -2 36 -40z m85 3 c5
-31 3 -37 -16 -40 -49 -10 -62 22 -19 45 19 10 23 16 14 22 -7 4 -16 2 -21 -6
-4 -7 -11 -10 -16 -6 -10 10 17 28 37 24 8 -1 17 -18 21 -39z m89 -7 c0 -54
-17 -77 -50 -66 -29 9 -25 27 5 19 15 -4 25 -2 25 4 0 6 -10 12 -22 14 -18 2
-23 10 -23 33 0 27 14 38 58 44 4 1 7 -21 7 -48z m64 43 c27 -10 20 -44 -9
-44 -14 0 -25 -5 -25 -11 0 -7 10 -9 28 -5 25 6 26 5 9 -8 -35 -27 -70 12 -47
54 11 21 19 24 44 14z m131 -34 c0 -30 -3 -35 -27 -38 -35 -4 -48 30 -22 59
27 30 49 20 49 -21z m207 26 c12 -17 9 -66 -3 -66 -5 0 -9 8 -8 18 3 29 -1 42
-11 42 -5 0 -10 -13 -10 -30 0 -16 -4 -30 -10 -30 -5 0 -10 14 -10 31 0 38
-24 35 -28 -4 -5 -39 -22 -33 -22 7 0 37 7 42 65 42 17 1 33 -4 37 -10z m58
-17 c19 36 21 18 4 -32 -19 -55 -31 -67 -31 -29 0 15 -3 43 -7 62 l-6 35 14
-29 13 -29 13 22z m88 11 c4 -13 3 -13 -10 -2 -10 8 -19 9 -22 3 -4 -5 3 -12
14 -16 23 -7 27 -40 6 -48 -8 -3 -22 1 -33 9 -17 13 -16 14 10 8 34 -8 36 11
2 20 -24 6 -33 25 -18 40 12 11 46 2 51 -14z m81 -42 c-1 -35 -4 -53 -6 -40
-3 15 -11 22 -29 22 -21 0 -24 5 -24 34 0 34 9 44 43 45 15 1 17 -8 16 -61z
m-1659 -3 c8 0 18 13 21 30 6 28 7 27 8 -11 1 -32 -3 -41 -16 -41 -29 0 -43
17 -42 51 l1 31 7 -30 c3 -17 13 -30 21 -30z m70 20 c0 -19 -4 -35 -10 -35 -5
0 -10 16 -10 35 0 19 5 35 10 35 6 0 10 -16 10 -35z m670 0 c0 -19 -4 -35 -10
-35 -5 0 -10 16 -10 35 0 19 5 35 10 35 6 0 10 -16 10 -35z"/>
<path d="M5490 3980 c-13 -3 -26 -12 -28 -19 -3 -10 2 -12 19 -8 13 3 41 9 62
12 20 4 39 11 42 15 5 8 -59 8 -95 0z"/>
<path d="M5410 3956 c0 -9 5 -16 10 -16 6 0 10 4 10 9 0 6 -4 13 -10 16 -5 3
-10 -1 -10 -9z"/>
<path d="M5370 3940 c0 -5 5 -10 11 -10 5 0 7 5 4 10 -3 6 -8 10 -11 10 -2 0
-4 -4 -4 -10z"/>
<path d="M5530 3940 c-8 -4 -30 -14 -47 -20 -24 -9 -33 -19 -32 -34 0 -15 2
-17 7 -6 9 19 42 22 42 5 0 -13 46 -55 60 -55 12 0 20 44 10 54 -6 6 -10 23
-10 38 0 29 -5 32 -30 18z"/>
<path d="M5505 3830 c3 -14 9 -33 12 -42 3 -12 0 -18 -11 -18 -10 0 -13 -6
-10 -15 4 -8 14 -15 23 -15 21 0 41 -19 41 -40 0 -14 16 -33 85 -98 17 -15 35
-36 40 -46 8 -13 20 -17 55 -14 l45 3 -47 25 c-27 13 -48 28 -48 32 0 4 -6 8
-12 8 -22 1 -78 87 -78 118 0 16 -7 35 -15 42 -8 7 -15 20 -15 29 0 14 -2 14
-11 1 -8 -11 -12 -12 -16 -3 -2 7 -14 23 -25 35 l-20 23 7 -25z"/>
<path d="M5470 3740 c0 -5 5 -10 11 -10 5 0 7 5 4 10 -3 6 -8 10 -11 10 -2 0
-4 -4 -4 -10z"/>
<path d="M7850 3955 c-4 -54 -3 -105 2 -111 9 -8 14 79 7 112 l-7 29 -2 -30z"/>
<path d="M7928 3945 c-7 -33 -2 -44 11 -29 4 5 5 20 1 34 -6 25 -6 25 -12 -5z"/>
<path d="M7930 3875 c0 -14 4 -25 9 -25 4 0 6 11 3 25 -2 14 -6 25 -8 25 -2 0
-4 -11 -4 -25z"/>
<path d="M7771 3883 c0 -6 -4 -20 -7 -30 -5 -14 -4 -15 5 -7 7 7 11 20 8 30
-3 11 -5 14 -6 7z"/>
<path d="M7240 3495 c0 -11 7 -15 23 -13 12 2 22 8 22 13 0 6 -10 11 -22 13
-16 2 -23 -2 -23 -13z"/>
<path d="M7253 3463 c-24 -9 -14 -33 13 -33 18 0 25 5 22 17 -3 18 -16 24 -35
16z"/>
<path d="M7484 3466 c-7 -19 3 -36 22 -36 10 0 14 8 12 22 -4 26 -26 36 -34
14z"/>
<path d="M7610 3455 c0 -16 6 -25 15 -25 9 0 15 9 15 25 0 16 -6 25 -15 25 -9
0 -15 -9 -15 -25z"/>
<path d="M7697 3473 c-4 -3 -7 -15 -7 -25 0 -28 34 -19 38 10 3 21 -16 31 -31
15z"/>
<path d="M7930 3470 c0 -5 4 -10 9 -10 6 0 13 5 16 10 3 6 -1 10 -9 10 -9 0
-16 -4 -16 -10z"/>
<path d="M8330 3455 c0 -16 6 -25 15 -25 9 0 15 9 15 25 0 16 -6 25 -15 25 -9
0 -15 -9 -15 -25z"/>
<path d="M8250 3440 c0 -5 7 -10 15 -10 8 0 15 5 15 10 0 6 -7 10 -15 10 -8 0
-15 -4 -15 -10z"/>
<path d="M8420 3470 c0 -5 7 -10 15 -10 8 0 15 5 15 10 0 6 -7 10 -15 10 -8 0
-15 -4 -15 -10z"/>
<path d="M8536 3464 c-7 -19 1 -34 19 -34 15 0 24 19 18 38 -6 17 -30 15 -37
-4z"/>
<path d="M8775 3440 c-3 -5 1 -10 9 -10 8 0 18 5 21 10 3 6 -1 10 -9 10 -8 0
-18 -4 -21 -10z"/>
<path d="M15700 2915 c-21 -25 -4 -47 32 -43 28 2 34 8 36 31 3 24 0 27 -26
27 -16 0 -35 -7 -42 -15z"/>
<path d="M450 2960 c0 -16 5 -21 23 -18 12 2 22 10 22 18 0 8 -10 16 -22 18
-18 3 -23 -2 -23 -18z"/>
<path d="M987 2944 c-16 -16 -7 -44 14 -44 15 0 20 5 17 22 -3 22 -19 33 -31
22z"/>
<path d="M1757 2944 c-15 -15 -7 -45 11 -42 9 2 17 12 17 22 0 20 -16 31 -28
20z"/>
<path d="M907 2944 c-15 -15 -7 -45 11 -42 9 2 17 12 17 22 0 20 -16 31 -28
20z"/>
<path d="M1070 2940 c0 -5 7 -10 15 -10 8 0 15 5 15 10 0 6 -7 10 -15 10 -8 0
-15 -4 -15 -10z"/>
<path d="M1197 2944 c-15 -15 -7 -45 11 -42 9 2 17 12 17 22 0 20 -16 31 -28
20z"/>
<path d="M10070 2440 c0 -34 3 -40 20 -40 25 0 42 37 28 63 -5 9 -18 17 -28
17 -17 0 -20 -7 -20 -40z"/>
<path d="M10767 2444 c-16 -16 -7 -44 14 -44 15 0 20 5 17 22 -3 22 -19 33
-31 22z"/>
<path d="M10177 2444 c-16 -16 -7 -44 14 -44 15 0 20 5 17 22 -3 22 -19 33
-31 22z"/>
<path d="M10405 2440 c-3 -5 3 -10 15 -10 12 0 18 5 15 10 -3 6 -10 10 -15 10
-5 0 -12 -4 -15 -10z"/>
<path d="M8248 2013 c6 -2 18 -2 25 0 6 3 1 5 -13 5 -14 0 -19 -2 -12 -5z"/>
<path d="M6020 1694 c-13 -33 -13 -110 0 -135 12 -22 59 -26 78 -7 7 7 12 40
12 78 0 73 -10 90 -52 90 -21 0 -31 -6 -38 -26z"/>
<path d="M980 1390 c0 -44 16 -52 44 -24 28 27 12 64 -26 64 -14 0 -18 -8 -18
-40z"/>
<path d="M7460 1414 c0 -9 7 -14 17 -12 25 5 28 28 4 28 -12 0 -21 -6 -21 -16z"/>
<path d="M7460 1370 c0 -21 16 -26 39 -11 18 11 5 31 -20 31 -12 0 -19 -7 -19
-20z"/>
<path d="M7702 1378 c2 -12 10 -23 18 -23 22 0 19 39 -3 43 -15 3 -18 -1 -15
-20z"/>
<path d="M7824 1386 c-7 -19 3 -36 22 -36 10 0 14 8 12 22 -4 26 -26 36 -34
14z"/>
<path d="M1098 1393 c7 -3 16 -2 19 1 4 3 -2 6 -13 5 -11 0 -14 -3 -6 -6z"/>
<path d="M1248 1393 c7 -3 16 -2 19 1 4 3 -2 6 -13 5 -11 0 -14 -3 -6 -6z"/>
<path d="M1360 1396 c-14 -18 -6 -50 13 -44 15 6 22 37 10 49 -6 6 -15 4 -23
-5z"/>
<path d="M1446 1403 c-12 -13 -6 -53 9 -53 9 0 15 9 15 24 0 26 -12 40 -24 29z"/>
<path d="M1528 1393 c7 -3 16 -2 19 1 4 3 -2 6 -13 5 -11 0 -14 -3 -6 -6z"/>
<path d="M7911 1391 c-13 -24 -7 -41 14 -41 20 0 28 32 11 48 -12 12 -16 12
-25 -7z"/>
<path d="M8148 1393 c7 -3 16 -2 19 1 4 3 -2 6 -13 5 -11 0 -14 -3 -6 -6z"/>
<path d="M8465 1360 c-3 -5 1 -10 9 -10 8 0 18 5 21 10 3 6 -1 10 -9 10 -8 0
-18 -4 -21 -10z"/>
<path d="M8543 1384 c-8 -21 13 -42 28 -27 13 13 5 43 -11 43 -6 0 -13 -7 -17
-16z"/>
<path d="M8638 1393 c7 -3 16 -2 19 1 4 3 -2 6 -13 5 -11 0 -14 -3 -6 -6z"/>
<path d="M8760 1396 c-14 -18 -6 -50 13 -44 15 6 22 37 10 49 -6 6 -15 4 -23
-5z"/>
<path d="M9182 1378 c2 -12 10 -23 18 -23 22 0 19 39 -3 43 -15 3 -18 -1 -15
-20z"/>
</g>
</svg>
